<svg width="120" height="24" viewBox="0 0 120 24" fill="none" xmlns="http://www.w3.org/2000/svg">
<path d="M23.8993 9.01194C23.7845 8.64085 23.5735 8.31009 23.2896 8.05628C23.0057 7.80247 22.6599 7.63551 22.2906 7.57387L16.4951 6.59211L13.8085 1.15018C13.6374 0.803737 13.378 0.513125 13.0589 0.31023C12.7397 0.107336 12.3731 0 11.9993 0C11.6255 0 11.2588 0.107336 10.9397 0.31023C10.6205 0.513125 10.3612 0.803737 10.19 1.15018L7.50343 6.59211L1.70808 7.57387C1.33912 7.63647 0.993821 7.8038 0.710082 8.05749C0.426344 8.31119 0.215127 8.64145 0.0996063 9.01204C-0.0159144 9.38263 -0.0312745 9.77923 0.0552113 10.1583C0.141697 10.5374 0.326687 10.8843 0.589883 11.1611L4.72488 15.5061L3.82988 21.5547C3.77245 21.94 3.81806 22.3343 3.9617 22.6943C4.10534 23.0543 4.34144 23.366 4.64404 23.5952C4.94663 23.8243 5.304 23.9621 5.67683 23.9932C6.04967 24.0244 6.42352 23.9478 6.75728 23.7718L11.9993 21.0152L17.2414 23.7718C17.5752 23.9474 17.949 24.0237 18.3217 23.9924C18.6944 23.9611 19.0516 23.8233 19.354 23.5943C19.6565 23.3652 19.8926 23.0536 20.0363 22.6938C20.1801 22.334 20.2259 21.9399 20.1688 21.5547L19.2738 15.5061L23.4088 11.1611C23.6729 10.8849 23.8584 10.5379 23.945 10.1586C24.0315 9.77933 24.0157 9.38245 23.8993 9.01194ZM22.2728 9.98656L17.5693 14.9289L18.5875 21.8091C18.6001 21.8915 18.5906 21.976 18.56 22.0531C18.5294 22.1302 18.4789 22.197 18.4142 22.246C18.3494 22.2951 18.2729 22.3244 18.1931 22.3309C18.1133 22.3374 18.0333 22.3208 17.962 22.2828L11.9993 19.1472L6.03648 22.2829C5.9652 22.3209 5.88523 22.3375 5.80542 22.331C5.72562 22.3246 5.64909 22.2952 5.58433 22.2461C5.51957 22.1971 5.4691 22.1303 5.43851 22.0532C5.40792 21.9761 5.39841 21.8916 5.41103 21.8092L6.42928 14.9289L1.72583 9.98651C1.66966 9.92735 1.6302 9.85323 1.61176 9.77225C1.59332 9.69128 1.59661 9.60657 1.62128 9.52741C1.64596 9.44826 1.69105 9.37771 1.75163 9.3235C1.81221 9.26928 1.88594 9.23349 1.96473 9.22005L8.55678 8.10335L11.6127 1.91336C11.6493 1.83931 11.7047 1.7772 11.7729 1.73383C11.8411 1.69046 11.9194 1.66752 11.9993 1.66752C12.0792 1.66752 12.1575 1.69046 12.2257 1.73383C12.2939 1.7772 12.3493 1.83931 12.3858 1.91336L15.4418 8.10335L22.0338 9.22005C22.1126 9.23349 22.1863 9.26928 22.2469 9.3235C22.3075 9.37771 22.3526 9.44826 22.3773 9.52741C22.4019 9.60657 22.4052 9.69128 22.3868 9.77225C22.3684 9.85323 22.3289 9.92741 22.2728 9.98656Z" fill="#2F80ED"/>
<path d="M47.8993 9.01194C47.7845 8.64085 47.5735 8.31009 47.2896 8.05628C47.0057 7.80247 46.6599 7.63551 46.2906 7.57387L40.4951 6.59211L37.8085 1.15018C37.6374 0.803737 37.378 0.513125 37.0589 0.31023C36.7397 0.107336 36.3731 0 35.9993 0C35.6255 0 35.2588 0.107336 34.9397 0.31023C34.6205 0.513125 34.3612 0.803737 34.19 1.15018L31.5034 6.59211L25.7081 7.57387C25.3391 7.63647 24.9938 7.8038 24.7101 8.05749C24.4263 8.31119 24.2151 8.64145 24.0996 9.01204C23.9841 9.38263 23.9687 9.77923 24.0552 10.1583C24.1417 10.5374 24.3267 10.8843 24.5899 11.1611L28.7249 15.5061L27.8299 21.5547C27.7725 21.94 27.8181 22.3343 27.9617 22.6943C28.1053 23.0543 28.3414 23.366 28.644 23.5952C28.9466 23.8243 29.304 23.9621 29.6768 23.9932C30.0497 24.0244 30.4235 23.9478 30.7573 23.7718L35.9993 21.0152L41.2414 23.7718C41.5752 23.9474 41.949 24.0237 42.3217 23.9924C42.6944 23.9611 43.0516 23.8233 43.354 23.5943C43.6565 23.3652 43.8926 23.0536 44.0363 22.6938C44.1801 22.334 44.2259 21.9399 44.1688 21.5547L43.2738 15.5061L47.4088 11.1611C47.6729 10.8849 47.8584 10.5379 47.945 10.1586C48.0315 9.77933 48.0157 9.38245 47.8993 9.01194ZM46.2728 9.98656L41.5693 14.9289L42.5875 21.8091C42.6001 21.8915 42.5906 21.976 42.56 22.0531C42.5294 22.1302 42.4789 22.197 42.4142 22.246C42.3494 22.2951 42.2729 22.3244 42.1931 22.3309C42.1133 22.3374 42.0333 22.3208 41.962 22.2828L35.9993 19.1472L30.0365 22.2829C29.9652 22.3209 29.8852 22.3375 29.8054 22.331C29.7256 22.3246 29.6491 22.2952 29.5843 22.2461C29.5196 22.1971 29.4691 22.1303 29.4385 22.0532C29.4079 21.9761 29.3984 21.8916 29.411 21.8092L30.4293 14.9289L25.7258 9.98651C25.6697 9.92735 25.6302 9.85323 25.6118 9.77225C25.5933 9.69128 25.5966 9.60657 25.6213 9.52741C25.646 9.44826 25.6911 9.37771 25.7516 9.3235C25.8122 9.26928 25.8859 9.23349 25.9647 9.22005L32.5568 8.10335L35.6127 1.91336C35.6493 1.83931 35.7047 1.7772 35.7729 1.73383C35.8411 1.69046 35.9194 1.66752 35.9993 1.66752C36.0792 1.66752 36.1575 1.69046 36.2257 1.73383C36.2939 1.7772 36.3493 1.83931 36.3858 1.91336L39.4418 8.10335L46.0338 9.22005C46.1126 9.23349 46.1863 9.26928 46.2469 9.3235C46.3075 9.37771 46.3526 9.44826 46.3773 9.52741C46.4019 9.60657 46.4052 9.69128 46.3868 9.77225C46.3684 9.85323 46.3289 9.92741 46.2728 9.98656Z" fill="#2F80ED"/>
<path d="M71.8993 9.01194C71.7845 8.64085 71.5735 8.31009 71.2896 8.05628C71.0057 7.80247 70.6599 7.63551 70.2906 7.57387L64.4951 6.59211L61.8085 1.15018C61.6374 0.803737 61.378 0.513125 61.0589 0.31023C60.7397 0.107336 60.3731 0 59.9993 0C59.6255 0 59.2588 0.107336 58.9397 0.31023C58.6205 0.513125 58.3612 0.803737 58.19 1.15018L55.5034 6.59211L49.7081 7.57387C49.3391 7.63647 48.9938 7.8038 48.7101 8.05749C48.4263 8.31119 48.2151 8.64145 48.0996 9.01204C47.9841 9.38263 47.9687 9.77923 48.0552 10.1583C48.1417 10.5374 48.3267 10.8843 48.5899 11.1611L52.7249 15.5061L51.8299 21.5547C51.7725 21.94 51.8181 22.3343 51.9617 22.6943C52.1053 23.0543 52.3414 23.366 52.644 23.5952C52.9466 23.8243 53.304 23.9621 53.6768 23.9932C54.0497 24.0244 54.4235 23.9478 54.7573 23.7718L59.9993 21.0152L65.2414 23.7718C65.5752 23.9474 65.949 24.0237 66.3217 23.9924C66.6944 23.9611 67.0516 23.8233 67.354 23.5943C67.6565 23.3652 67.8926 23.0536 68.0363 22.6938C68.1801 22.334 68.2259 21.9399 68.1688 21.5547L67.2738 15.5061L71.4088 11.1611C71.6729 10.8849 71.8584 10.5379 71.945 10.1586C72.0315 9.77933 72.0157 9.38245 71.8993 9.01194ZM70.2728 9.98656L65.5693 14.9289L66.5875 21.8091C66.6001 21.8915 66.5906 21.976 66.56 22.0531C66.5294 22.1302 66.4789 22.197 66.4142 22.246C66.3494 22.2951 66.2729 22.3244 66.1931 22.3309C66.1133 22.3374 66.0333 22.3208 65.962 22.2828L59.9993 19.1472L54.0365 22.2829C53.9652 22.3209 53.8852 22.3375 53.8054 22.331C53.7256 22.3246 53.6491 22.2952 53.5843 22.2461C53.5196 22.1971 53.4691 22.1303 53.4385 22.0532C53.4079 21.9761 53.3984 21.8916 53.411 21.8092L54.4293 14.9289L49.7258 9.98651C49.6697 9.92735 49.6302 9.85323 49.6118 9.77225C49.5933 9.69128 49.5966 9.60657 49.6213 9.52741C49.646 9.44826 49.6911 9.37771 49.7516 9.3235C49.8122 9.26928 49.8859 9.23349 49.9647 9.22005L56.5568 8.10335L59.6127 1.91336C59.6493 1.83931 59.7047 1.7772 59.7729 1.73383C59.8411 1.69046 59.9194 1.66752 59.9993 1.66752C60.0792 1.66752 60.1575 1.69046 60.2257 1.73383C60.2939 1.7772 60.3493 1.83931 60.3858 1.91336L63.4418 8.10335L70.0338 9.22005C70.1126 9.23349 70.1863 9.26928 70.2469 9.3235C70.3075 9.37771 70.3526 9.44826 70.3773 9.52741C70.4019 9.60657 70.4052 9.69128 70.3868 9.77225C70.3684 9.85323 70.3289 9.92741 70.2728 9.98656Z" fill="#2F80ED"/>
<path d="M95.8993 9.01194C95.7845 8.64085 95.5735 8.31009 95.2896 8.05628C95.0057 7.80247 94.6599 7.63551 94.2906 7.57387L88.4951 6.59211L85.8085 1.15018C85.6374 0.803737 85.378 0.513125 85.0589 0.31023C84.7397 0.107336 84.3731 0 83.9993 0C83.6255 0 83.2588 0.107336 82.9397 0.31023C82.6205 0.513125 82.3612 0.803737 82.19 1.15018L79.5034 6.59211L73.7081 7.57387C73.3391 7.63647 72.9938 7.8038 72.7101 8.05749C72.4263 8.31119 72.2151 8.64145 72.0996 9.01204C71.9841 9.38263 71.9687 9.77923 72.0552 10.1583C72.1417 10.5374 72.3267 10.8843 72.5899 11.1611L76.7249 15.5061L75.8299 21.5547C75.7725 21.94 75.8181 22.3343 75.9617 22.6943C76.1053 23.0543 76.3414 23.366 76.644 23.5952C76.9466 23.8243 77.304 23.9621 77.6768 23.9932C78.0497 24.0244 78.4235 23.9478 78.7573 23.7718L83.9993 21.0152L89.2414 23.7718C89.5752 23.9474 89.949 24.0237 90.3217 23.9924C90.6944 23.9611 91.0516 23.8233 91.354 23.5943C91.6565 23.3652 91.8926 23.0536 92.0363 22.6938C92.1801 22.334 92.2259 21.9399 92.1688 21.5547L91.2738 15.5061L95.4088 11.1611C95.6729 10.8849 95.8584 10.5379 95.945 10.1586C96.0315 9.77933 96.0157 9.38245 95.8993 9.01194ZM94.2728 9.98656L89.5693 14.9289L90.5875 21.8091C90.6001 21.8915 90.5906 21.976 90.56 22.0531C90.5294 22.1302 90.4789 22.197 90.4142 22.246C90.3494 22.2951 90.2729 22.3244 90.1931 22.3309C90.1133 22.3374 90.0333 22.3208 89.962 22.2828L83.9993 19.1472L78.0365 22.2829C77.9652 22.3209 77.8852 22.3375 77.8054 22.331C77.7256 22.3246 77.6491 22.2952 77.5843 22.2461C77.5196 22.1971 77.4691 22.1303 77.4385 22.0532C77.4079 21.9761 77.3984 21.8916 77.411 21.8092L78.4293 14.9289L73.7258 9.98651C73.6697 9.92735 73.6302 9.85323 73.6118 9.77225C73.5933 9.69128 73.5966 9.60657 73.6213 9.52741C73.646 9.44826 73.6911 9.37771 73.7516 9.3235C73.8122 9.26928 73.8859 9.23349 73.9647 9.22005L80.5568 8.10335L83.6127 1.91336C83.6493 1.83931 83.7047 1.7772 83.7729 1.73383C83.8411 1.69046 83.9194 1.66752 83.9993 1.66752C84.0792 1.66752 84.1575 1.69046 84.2257 1.73383C84.2939 1.7772 84.3493 1.83931 84.3858 1.91336L87.4418 8.10335L94.0338 9.22005C94.1126 9.23349 94.1863 9.26928 94.2469 9.3235C94.3075 9.37771 94.3526 9.44826 94.3773 9.52741C94.4019 9.60657 94.4052 9.69128 94.3868 9.77225C94.3684 9.85323 94.3289 9.92741 94.2728 9.98656Z" fill="#2F80ED"/>
<path d="M119.899 9.01194C119.785 8.64085 119.574 8.31009 119.29 8.05628C119.006 7.80247 118.66 7.63551 118.291 7.57387L112.495 6.59211L109.809 1.15018C109.637 0.803737 109.378 0.513125 109.059 0.31023C108.74 0.107336 108.373 0 107.999 0C107.625 0 107.259 0.107336 106.94 0.31023C106.621 0.513125 106.361 0.803737 106.19 1.15018L103.503 6.59211L97.7081 7.57387C97.3391 7.63647 96.9938 7.8038 96.7101 8.05749C96.4263 8.31119 96.2151 8.64145 96.0996 9.01204C95.9841 9.38263 95.9687 9.77923 96.0552 10.1583C96.1417 10.5374 96.3267 10.8843 96.5899 11.1611L100.725 15.5061L99.8299 21.5547C99.7725 21.94 99.8181 22.3343 99.9617 22.6943C100.105 23.0543 100.341 23.366 100.644 23.5952C100.947 23.8243 101.304 23.9621 101.677 23.9932C102.05 24.0244 102.424 23.9478 102.757 23.7718L107.999 21.0152L113.241 23.7718C113.575 23.9474 113.949 24.0237 114.322 23.9924C114.694 23.9611 115.052 23.8233 115.354 23.5943C115.657 23.3652 115.893 23.0536 116.036 22.6938C116.18 22.334 116.226 21.9399 116.169 21.5547L115.274 15.5061L119.409 11.1611C119.673 10.8849 119.858 10.5379 119.945 10.1586C120.032 9.77933 120.016 9.38245 119.899 9.01194ZM118.273 9.98656L113.569 14.9289L114.587 21.8091C114.6 21.8915 114.591 21.976 114.56 22.0531C114.529 22.1302 114.479 22.197 114.414 22.246C114.349 22.2951 114.273 22.3244 114.193 22.3309C114.113 22.3374 114.033 22.3208 113.962 22.2828L107.999 19.1472L102.036 22.2829C101.965 22.3209 101.885 22.3375 101.805 22.331C101.726 22.3246 101.649 22.2952 101.584 22.2461C101.52 22.1971 101.469 22.1303 101.439 22.0532C101.408 21.9761 101.398 21.8916 101.411 21.8092L102.429 14.9289L97.7258 9.98651C97.6697 9.92735 97.6302 9.85323 97.6118 9.77225C97.5933 9.69128 97.5966 9.60657 97.6213 9.52741C97.646 9.44826 97.6911 9.37771 97.7516 9.3235C97.8122 9.26928 97.8859 9.23349 97.9647 9.22005L104.557 8.10335L107.613 1.91336C107.649 1.83931 107.705 1.7772 107.773 1.73383C107.841 1.69046 107.919 1.66752 107.999 1.66752C108.079 1.66752 108.157 1.69046 108.226 1.73383C108.294 1.7772 108.349 1.83931 108.386 1.91336L111.442 8.10335L118.034 9.22005C118.113 9.23349 118.186 9.26928 118.247 9.3235C118.308 9.37771 118.353 9.44826 118.377 9.52741C118.402 9.60657 118.405 9.69128 118.387 9.77225C118.368 9.85323 118.329 9.92741 118.273 9.98656Z" fill="#2F80ED"/>
</svg>
