<svg width="24" height="24" viewBox="0 0 24 24" fill="none" xmlns="http://www.w3.org/2000/svg">
<path d="M23.9364 11.3034C23.941 13.0585 23.5309 14.7899 22.7396 16.3566C21.8014 18.2339 20.3589 19.813 18.5739 20.9169C16.789 22.0208 14.7319 22.6059 12.6331 22.6067C10.878 22.6113 9.14653 22.2012 7.57987 21.4099L0 23.9365L2.52662 16.3566C1.7353 14.7899 1.32523 13.0585 1.3298 11.3034C1.33061 9.20461 1.91573 7.14753 3.01961 5.36253C4.12349 3.57754 5.70253 2.13512 7.57987 1.19686C9.14653 0.405536 10.878 -0.0045383 12.6331 3.78835e-05H13.298C16.0698 0.152954 18.6878 1.32287 20.6507 3.28579C22.6136 5.24871 23.7835 7.86669 23.9364 10.6385V11.3034Z" fill="#F2C94C"/>
</svg>
