<?xml version="1.0" ?><svg id="Balloon" style="enable-background:new 0 0 32 32;" version="1.1" viewBox="0 0 32 32" xml:space="preserve" xmlns="http://www.w3.org/2000/svg" xmlns:xlink="http://www.w3.org/1999/xlink"><style type="text/css">
	.st0{fill:#55C1FA;}
	.st1{fill:#FCD2B4;}
	.st2{fill:#2A80AD;}
</style><g><path class="st0" d="M22.23,16.47H9.77C7.14,16.47,5,18.61,5,21.24V29c0,0.55,0.45,1,1,1h4.08L9.5,23.32   c-0.04-0.55,0.36-1.03,0.91-1.08c0.56-0.06,1.04,0.36,1.09,0.91L12.09,30h7.82l0.59-6.85c0.05-0.55,0.5-0.97,1.09-0.91   c0.55,0.05,0.95,0.53,0.91,1.08L21.92,30H26c0.55,0,1-0.45,1-1v-7.76C27,18.61,24.86,16.47,22.23,16.47z"/><path class="st1" d="M15.76,15.422c3.64,0,6.601-3.011,6.601-6.711C22.36,5.011,19.399,2,15.76,2c-3.639,0-6.6,3.011-6.6,6.711   C9.16,12.412,12.121,15.422,15.76,15.422z"/><path class="st2" d="M10.41,22.24c-0.55,0.05-0.95,0.53-0.91,1.08L10.08,30h2.01l-0.59-6.85C11.45,22.6,10.97,22.18,10.41,22.24z"/><path class="st2" d="M21.59,22.24c-0.59-0.06-1.04,0.36-1.09,0.91L19.91,30h2.01l0.58-6.68C22.54,22.77,22.14,22.29,21.59,22.24z"/></g></svg>