<svg width="22" height="21" viewBox="0 0 14 15" fill="none" xmlns="http://www.w3.org/2000/svg">
<path d="M11.5008 9.99998C11.1266 10.0019 10.7575 10.0878 10.4209 10.2513C10.0842 10.4149 9.78861 10.6519 9.55582 10.945L5.90082 8.65998C6.03403 8.23006 6.03403 7.7699 5.90082 7.33998L9.55582 5.05498C9.9268 5.51434 10.4484 5.82757 11.0282 5.93918C11.608 6.0508 12.2086 5.9536 12.7236 5.66479C13.2386 5.37599 13.6347 4.91423 13.8419 4.3613C14.049 3.80838 14.0538 3.19999 13.8553 2.6439C13.6568 2.08781 13.2679 1.61991 12.7575 1.3231C12.2471 1.02628 11.6481 0.919705 11.0666 1.02225C10.4851 1.12479 9.95871 1.42983 9.5806 1.88334C9.2025 2.33685 8.99711 2.90954 9.00082 3.49998C9.00318 3.72357 9.03684 3.94573 9.10082 4.15998L5.44582 6.44498C5.12315 6.03877 4.68209 5.74301 4.1838 5.59868C3.68551 5.45435 3.15466 5.46861 2.66483 5.63949C2.17501 5.81036 1.75047 6.12938 1.45007 6.55233C1.14967 6.97528 0.988281 7.48121 0.988281 7.99998C0.988281 8.51876 1.14967 9.02468 1.45007 9.44763C1.75047 9.87058 2.17501 10.1896 2.66483 10.3605C3.15466 10.5313 3.68551 10.5456 4.1838 10.4013C4.68209 10.257 5.12315 9.96119 5.44582 9.55498L9.10082 11.84C9.03684 12.0542 9.00318 12.2764 9.00082 12.5C9.00082 12.9944 9.14745 13.4778 9.42215 13.8889C9.69685 14.3 10.0873 14.6205 10.5441 14.8097C11.0009 14.9989 11.5036 15.0484 11.9885 14.9519C12.4735 14.8555 12.919 14.6174 13.2686 14.2677C13.6182 13.9181 13.8563 13.4727 13.9528 12.9877C14.0492 12.5028 13.9997 12.0001 13.8105 11.5433C13.6213 11.0865 13.3009 10.696 12.8897 10.4213C12.4786 10.1466 11.9953 9.99998 11.5008 9.99998V9.99998ZM11.5008 1.99998C11.7975 1.99998 12.0875 2.08795 12.3342 2.25278C12.5809 2.4176 12.7731 2.65187 12.8866 2.92596C13.0002 3.20004 13.0299 3.50164 12.972 3.79262C12.9141 4.08359 12.7713 4.35086 12.5615 4.56064C12.3517 4.77042 12.0844 4.91328 11.7935 4.97116C11.5025 5.02904 11.2009 4.99933 10.9268 4.8858C10.6527 4.77227 10.4184 4.58001 10.2536 4.33334C10.0888 4.08666 10.0008 3.79665 10.0008 3.49998C10.0008 3.10216 10.1589 2.72062 10.4402 2.43932C10.7215 2.15802 11.103 1.99998 11.5008 1.99998V1.99998ZM3.50082 9.49998C3.20415 9.49998 2.91414 9.41201 2.66747 9.24719C2.4208 9.08236 2.22854 8.8481 2.11501 8.57401C2.00147 8.29992 1.97177 7.99832 2.02965 7.70735C2.08752 7.41637 2.23039 7.1491 2.44016 6.93932C2.64994 6.72954 2.91722 6.58668 3.20819 6.5288C3.49916 6.47092 3.80076 6.50063 4.07485 6.61416C4.34894 6.72769 4.58321 6.91995 4.74803 7.16663C4.91285 7.4133 5.00082 7.70331 5.00082 7.99998C5.00082 8.39781 4.84279 8.77934 4.56148 9.06064C4.28018 9.34195 3.89865 9.49998 3.50082 9.49998ZM11.5008 14C11.2042 14 10.9141 13.912 10.6675 13.7472C10.4208 13.5824 10.2285 13.3481 10.115 13.074C10.0015 12.7999 9.97177 12.4983 10.0296 12.2073C10.0875 11.9164 10.2304 11.6491 10.4402 11.4393C10.6499 11.2295 10.9172 11.0867 11.2082 11.0288C11.4992 10.9709 11.8008 11.0006 12.0748 11.1142C12.3489 11.2277 12.5832 11.42 12.748 11.6666C12.9129 11.9133 13.0008 12.2033 13.0008 12.5C13.0008 12.8978 12.8428 13.2793 12.5615 13.5606C12.2802 13.8419 11.8986 14 11.5008 14V14Z" fill="#2F80ED"/>
</svg>
