<svg width="24" height="24" viewBox="0 0 24 24" fill="none" xmlns="http://www.w3.org/2000/svg">
<path d="M23.8993 9.01194C23.7845 8.64085 23.5735 8.31009 23.2896 8.05628C23.0057 7.80247 22.6599 7.63551 22.2906 7.57387L16.4951 6.59211L13.8085 1.15018C13.6374 0.803737 13.378 0.513125 13.0589 0.31023C12.7397 0.107336 12.3731 0 11.9993 0C11.6255 0 11.2588 0.107336 10.9397 0.31023C10.6205 0.513125 10.3612 0.803737 10.19 1.15018L7.50343 6.59211L1.70808 7.57387C1.33912 7.63647 0.993821 7.8038 0.710083 8.05749C0.426344 8.31119 0.215127 8.64145 0.0996063 9.01204C-0.0159143 9.38263 -0.0312744 9.77923 0.0552114 10.1583C0.141697 10.5374 0.326687 10.8843 0.589883 11.1611L4.72488 15.5061L3.82988 21.5547C3.77245 21.94 3.81806 22.3343 3.9617 22.6943C4.10534 23.0543 4.34144 23.366 4.64404 23.5952C4.94663 23.8243 5.304 23.9621 5.67683 23.9932C6.04967 24.0244 6.42352 23.9478 6.75728 23.7718L11.9993 21.0152L17.2414 23.7718C17.5752 23.9474 17.949 24.0237 18.3217 23.9924C18.6944 23.9611 19.0516 23.8233 19.354 23.5943C19.6565 23.3652 19.8926 23.0536 20.0363 22.6938C20.1801 22.334 20.2259 21.9399 20.1688 21.5547L19.2738 15.5061L23.4088 11.1611C23.6729 10.8849 23.8584 10.5379 23.945 10.1586C24.0315 9.77933 24.0157 9.38245 23.8993 9.01194V9.01194ZM22.2728 9.98656L17.5693 14.9289L18.5875 21.8091C18.6001 21.8915 18.5906 21.976 18.56 22.0531C18.5294 22.1302 18.4789 22.197 18.4142 22.246C18.3494 22.295 18.2729 22.3244 18.1931 22.3309C18.1133 22.3374 18.0333 22.3208 17.962 22.2828L11.9993 19.1472L6.03648 22.2829C5.9652 22.3209 5.88523 22.3375 5.80542 22.331C5.72562 22.3246 5.64909 22.2952 5.58433 22.2461C5.51957 22.1971 5.4691 22.1303 5.43851 22.0532C5.40792 21.9761 5.39841 21.8916 5.41103 21.8092L6.42928 14.9289L1.72583 9.98651C1.66966 9.92735 1.6302 9.85323 1.61176 9.77225C1.59332 9.69128 1.59661 9.60657 1.62128 9.52741C1.64596 9.44826 1.69105 9.37771 1.75163 9.3235C1.81221 9.26928 1.88594 9.23349 1.96473 9.22005L8.55678 8.10335L11.6127 1.91336C11.6493 1.83931 11.7047 1.7772 11.7729 1.73383C11.8411 1.69046 11.9194 1.66752 11.9993 1.66752C12.0792 1.66752 12.1575 1.69046 12.2257 1.73383C12.2939 1.7772 12.3493 1.83931 12.3858 1.91336L15.4418 8.10335L22.0338 9.22005C22.1126 9.23349 22.1863 9.26928 22.2469 9.3235C22.3075 9.37771 22.3526 9.44826 22.3773 9.52741C22.4019 9.60657 22.4052 9.69128 22.3868 9.77225C22.3684 9.85323 22.3289 9.92735 22.2727 9.98651L22.2728 9.98656Z" fill="#2F80ED"/>
</svg>
