<svg width="1920" height="423" viewBox="0 0 1920 423" fill="none" xmlns="http://www.w3.org/2000/svg">
<path opacity="0.8" fill-rule="evenodd" clip-rule="evenodd" d="M1920 48.9833V51.5832L1895.11 76.4924C1893.76 77.8475 1892.68 79.4582 1891.94 81.2319C1891.21 83.0055 1890.83 84.907 1890.84 86.8269V149.682L1755.77 198.84L1823.98 130.562C1824.16 130.569 1824.33 130.594 1824.51 130.62C1824.71 130.65 1824.92 130.679 1825.12 130.679C1829.45 130.679 1833.69 129.393 1837.29 126.984C1840.89 124.575 1843.7 121.15 1845.36 117.144C1847.02 113.137 1847.45 108.729 1846.6 104.475C1845.76 100.222 1843.67 96.3154 1840.61 93.2489C1837.55 90.1825 1833.64 88.0942 1829.39 87.2482C1825.14 86.4022 1820.74 86.8364 1816.74 88.4959C1812.73 90.1555 1809.31 92.9658 1806.91 96.5716C1804.5 100.177 1803.21 104.416 1803.21 108.753C1803.21 108.958 1803.24 109.162 1803.27 109.367C1803.3 109.543 1803.32 109.718 1803.33 109.893L1735.12 178.171L1784.23 42.9746H1847.03C1850.91 42.9746 1854.62 41.4397 1857.35 38.6917L1883.53 12.4826L1920 48.9833ZM1844.72 10L1840.98 13.7397H1774.01C1771.01 13.7376 1768.09 14.6598 1765.63 16.3809C1763.18 18.102 1761.32 20.5383 1760.3 23.358L1701.88 184.15C1699.94 189.485 1701.27 195.464 1705.27 199.484L1734.48 228.718C1736.44 230.689 1738.93 232.055 1741.64 232.656C1744.35 233.257 1747.18 233.067 1749.8 232.11L1910.43 173.64C1913.25 172.618 1915.68 170.752 1917.4 168.296C1918.91 166.149 1919.8 163.642 1920 161.042V413H1514.65C1516.1 412.01 1517.38 410.758 1518.4 409.296C1520.12 406.84 1521.04 403.913 1521.04 400.914V333.879L1553.27 301.618V301.603H1553.29L1579.46 275.336C1584.98 269.81 1588.01 262.458 1588 254.652C1588 246.832 1584.95 239.479 1579.41 233.968L1541.55 196.241C1530.49 185.219 1511.21 185.263 1500.25 196.314L1474.19 222.494L1441.98 254.74H1375.01C1372.01 254.738 1369.09 255.66 1366.63 257.381C1364.18 259.102 1362.32 261.538 1361.3 264.358L1307.3 413H590.043V347.879L622.273 315.618V315.603H622.287L648.457 289.336C653.977 283.81 657.015 276.458 657 268.652C657 260.832 653.948 253.479 648.413 247.968L610.546 210.241C599.491 199.219 580.215 199.263 569.248 210.314L543.195 236.494L510.98 268.74H444.008C441.012 268.738 438.088 269.66 435.634 271.381C433.18 273.102 431.316 275.538 430.295 278.358L381.381 413H0V10H236.694L209.98 36.7397H143.008C140.012 36.7376 137.088 37.6598 134.634 39.3809C132.18 41.102 130.316 43.5383 129.295 46.358L70.8813 207.15C68.939 212.485 70.2679 218.464 74.2693 222.484L103.476 251.718C105.44 253.689 107.926 255.055 110.64 255.656C113.355 256.257 116.185 256.067 118.795 255.11L279.434 196.64C282.251 195.618 284.685 193.752 286.404 191.296C288.124 188.84 289.045 185.913 289.043 182.914V115.879L321.273 83.6178V83.6032H321.287L347.457 57.3357C352.977 51.8103 356.015 44.4577 356 36.652C356 28.8316 352.948 21.4791 347.413 15.9683L341.423 10H1844.72ZM1342.28 413H1338.36L1385.23 283.975H1448.03C1451.91 283.975 1455.62 282.44 1458.35 279.692L1484.53 253.483L1522.3 291.283L1496.11 317.492C1494.76 318.848 1493.68 320.458 1492.94 322.232C1492.21 324.005 1491.83 325.907 1491.84 327.827V390.682L1430.51 413H1383.58L1424.98 371.562C1425.16 371.569 1425.33 371.595 1425.51 371.62C1425.71 371.65 1425.92 371.679 1426.12 371.679C1430.45 371.679 1434.69 370.393 1438.29 367.984C1441.89 365.575 1444.7 362.15 1446.36 358.144C1448.02 354.137 1448.45 349.729 1447.6 345.475C1446.76 341.222 1444.67 337.315 1441.61 334.249C1438.55 331.182 1434.64 329.094 1430.39 328.248C1426.14 327.402 1421.74 327.836 1417.74 329.496C1413.73 331.155 1410.31 333.966 1407.91 337.572C1405.5 341.177 1404.21 345.417 1404.21 349.753C1404.21 349.958 1404.24 350.162 1404.27 350.367C1404.3 350.543 1404.32 350.718 1404.33 350.893L1342.28 413ZM277.941 10H300.013L326.793 36.6812L310.934 52.5996L273.169 14.7989L277.941 10ZM560.836 404.682L537.981 413H466.57L493.981 385.562C494.156 385.569 494.331 385.594 494.506 385.62L494.507 385.62C494.711 385.65 494.916 385.679 495.12 385.679C499.453 385.679 503.688 384.393 507.29 381.984C510.892 379.575 513.7 376.15 515.358 372.144C517.016 368.137 517.45 363.729 516.605 359.475C515.759 355.222 513.673 351.315 510.61 348.249C507.546 345.182 503.643 343.094 499.394 342.248C495.145 341.402 490.74 341.836 486.737 343.496C482.735 345.155 479.314 347.966 476.907 351.572C474.5 355.177 473.215 359.417 473.215 363.753C473.215 363.827 473.219 363.901 473.225 363.975C473.236 364.106 473.255 364.236 473.274 364.367C473.3 364.542 473.325 364.718 473.332 364.893L425.271 413H412.446L454.23 297.975H517.025C520.91 297.975 524.619 296.44 527.35 293.692L553.534 267.483L591.299 305.283L565.115 331.492C563.756 332.848 562.678 334.458 561.944 336.232C561.21 338.005 560.833 339.907 560.836 341.827V404.682ZM260.944 104.232C261.678 102.458 262.756 100.847 264.115 99.4924L290.299 73.2833L252.534 35.4826L226.35 61.6917C223.619 64.4397 219.91 65.9746 216.025 65.9746H153.23L104.119 201.171L172.332 132.893C172.325 132.718 172.3 132.542 172.274 132.367C172.245 132.162 172.215 131.958 172.215 131.753C172.215 127.416 173.5 123.177 175.907 119.572C178.314 115.966 181.735 113.155 185.737 111.496C189.74 109.836 194.144 109.402 198.394 110.248C202.643 111.094 206.546 113.183 209.61 116.249C212.673 119.315 214.759 123.222 215.605 127.475C216.45 131.729 216.016 136.137 214.358 140.144C212.7 144.15 209.892 147.575 206.29 149.984C202.688 152.393 198.453 153.679 194.12 153.679C193.916 153.679 193.711 153.65 193.507 153.62C193.332 153.594 193.156 153.569 192.981 153.562L124.768 221.84L259.836 172.682V109.827C259.833 107.907 260.21 106.006 260.944 104.232ZM611.934 284.6L574.169 246.799L589.926 230.954L627.793 268.681L611.934 284.6ZM1140.55 40.2406C1129.49 29.2191 1110.21 29.2629 1099.25 40.3137L1073.19 66.4936L1040.98 98.7397H974.008C971.012 98.7376 968.088 99.6598 965.634 101.381C963.18 103.102 961.316 105.538 960.295 108.358L901.881 269.15C899.939 274.485 901.268 280.464 905.269 284.484L934.476 313.718C936.44 315.689 938.926 317.055 941.64 317.656C944.355 318.257 947.185 318.067 949.795 317.11L1110.43 258.64C1113.25 257.618 1115.68 255.752 1117.4 253.296C1119.12 250.84 1120.05 247.913 1120.04 244.914V177.879L1152.27 145.618V145.603H1152.29L1178.46 119.336C1183.98 113.81 1187.01 106.458 1187 98.652C1187 90.8316 1183.95 83.4791 1178.41 77.9683L1140.55 40.2406ZM1095.11 161.492C1093.76 162.847 1092.68 164.458 1091.94 166.232C1091.21 168.005 1090.83 169.907 1090.84 171.827V234.682L955.768 283.84L1023.98 215.562C1024.16 215.569 1024.33 215.594 1024.51 215.62C1024.71 215.65 1024.92 215.679 1025.12 215.679C1029.45 215.679 1033.69 214.393 1037.29 211.984C1040.89 209.575 1043.7 206.15 1045.36 202.144C1047.02 198.137 1047.45 193.729 1046.6 189.475C1045.76 185.222 1043.67 181.315 1040.61 178.249C1037.55 175.183 1033.64 173.094 1029.39 172.248C1025.14 171.402 1020.74 171.836 1016.74 173.496C1012.73 175.155 1009.31 177.966 1006.91 181.572C1004.5 185.177 1003.21 189.416 1003.21 193.753C1003.21 193.958 1003.24 194.162 1003.27 194.367C1003.29 194.455 1003.3 194.543 1003.31 194.631C1003.32 194.718 1003.33 194.806 1003.33 194.893L935.119 263.171L984.23 127.975H1047.03C1050.91 127.975 1054.62 126.44 1057.35 123.692L1083.53 97.4826L1121.3 135.283L1095.11 161.492ZM1141.93 114.6L1104.17 76.7989L1119.93 60.9536L1157.79 98.6812L1141.93 114.6ZM1505.17 232.799L1542.93 270.6L1558.79 254.681L1520.93 216.954L1505.17 232.799Z" fill="#F5F5F5"/>
</svg>
