<svg width="23" height="23" viewBox="0 0 23 23" fill="none" xmlns="http://www.w3.org/2000/svg">
<circle cx="11.5" cy="11.5" r="11" stroke="#2F80ED"/>
<path d="M14.5008 14C14.1266 14.0019 13.7575 14.0878 13.4209 14.2513C13.0842 14.4149 12.7886 14.6519 12.5558 14.945L8.90082 12.66C9.03403 12.2301 9.03403 11.7699 8.90082 11.34L12.5558 9.05498C12.9268 9.51434 13.4484 9.82757 14.0282 9.93918C14.608 10.0508 15.2086 9.9536 15.7236 9.66479C16.2386 9.37599 16.6347 8.91423 16.8419 8.3613C17.049 7.80838 17.0538 7.19999 16.8553 6.6439C16.6568 6.08781 16.2679 5.61991 15.7575 5.3231C15.2471 5.02628 14.6481 4.9197 14.0666 5.02225C13.4851 5.12479 12.9587 5.42983 12.5806 5.88334C12.2025 6.33685 11.9971 6.90954 12.0008 7.49998C12.0032 7.72357 12.0368 7.94573 12.1008 8.15998L8.44582 10.445C8.12315 10.0388 7.68209 9.74301 7.1838 9.59868C6.68551 9.45435 6.15466 9.46861 5.66483 9.63949C5.17501 9.81036 4.75047 10.1294 4.45007 10.5523C4.14967 10.9753 3.98828 11.4812 3.98828 12C3.98828 12.5188 4.14967 13.0247 4.45007 13.4476C4.75047 13.8706 5.17501 14.1896 5.66483 14.3605C6.15466 14.5313 6.68551 14.5456 7.1838 14.4013C7.68209 14.257 8.12315 13.9612 8.44582 13.555L12.1008 15.84C12.0368 16.0542 12.0032 16.2764 12.0008 16.5C12.0008 16.9944 12.1474 17.4778 12.4221 17.8889C12.6969 18.3 13.0873 18.6205 13.5441 18.8097C14.0009 18.9989 14.5036 19.0484 14.9885 18.9519C15.4735 18.8555 15.919 18.6174 16.2686 18.2677C16.6182 17.9181 16.8563 17.4727 16.9528 16.9877C17.0492 16.5028 16.9997 16.0001 16.8105 15.5433C16.6213 15.0865 16.3009 14.696 15.8897 14.4213C15.4786 14.1466 14.9953 14 14.5008 14ZM14.5008 5.99998C14.7975 5.99998 15.0875 6.08795 15.3342 6.25278C15.5809 6.4176 15.7731 6.65187 15.8866 6.92596C16.0002 7.20004 16.0299 7.50164 15.972 7.79262C15.9141 8.08359 15.7713 8.35086 15.5615 8.56064C15.3517 8.77042 15.0844 8.91328 14.7935 8.97116C14.5025 9.02904 14.2009 8.99933 13.9268 8.8858C13.6527 8.77227 13.4184 8.58001 13.2536 8.33334C13.0888 8.08666 13.0008 7.79665 13.0008 7.49998C13.0008 7.10216 13.1589 6.72062 13.4402 6.43932C13.7215 6.15802 14.103 5.99998 14.5008 5.99998ZM6.50082 13.5C6.20415 13.5 5.91414 13.412 5.66747 13.2472C5.4208 13.0824 5.22854 12.8481 5.11501 12.574C5.00147 12.2999 4.97177 11.9983 5.02965 11.7073C5.08752 11.4164 5.23039 11.1491 5.44016 10.9393C5.64994 10.7295 5.91722 10.5867 6.20819 10.5288C6.49916 10.4709 6.80076 10.5006 7.07485 10.6142C7.34894 10.7277 7.58321 10.92 7.74803 11.1666C7.91285 11.4133 8.00082 11.7033 8.00082 12C8.00082 12.3978 7.84279 12.7793 7.56148 13.0606C7.28018 13.3419 6.89865 13.5 6.50082 13.5ZM14.5008 18C14.2042 18 13.9141 17.912 13.6675 17.7472C13.4208 17.5824 13.2285 17.3481 13.115 17.074C13.0015 16.7999 12.9718 16.4983 13.0296 16.2073C13.0875 15.9164 13.2304 15.6491 13.4402 15.4393C13.6499 15.2295 13.9172 15.0867 14.2082 15.0288C14.4992 14.9709 14.8008 15.0006 15.0748 15.1142C15.3489 15.2277 15.5832 15.42 15.748 15.6666C15.9129 15.9133 16.0008 16.2033 16.0008 16.5C16.0008 16.8978 15.8428 17.2793 15.5615 17.5606C15.2802 17.8419 14.8986 18 14.5008 18Z" fill="#2F80ED"/>
</svg>
