<svg width="120" height="24" viewBox="0 0 120 24" fill="none" xmlns="http://www.w3.org/2000/svg">
<path fill-rule="evenodd" clip-rule="evenodd" d="M23.2896 8.05628C23.5735 8.31009 23.7845 8.64085 23.8993 9.01194C24.0157 9.38245 24.0315 9.77933 23.945 10.1586C23.8584 10.5379 23.6729 10.8849 23.4088 11.1611L19.2738 15.5061L20.1688 21.5547C20.2259 21.9399 20.1801 22.334 20.0363 22.6938C19.8926 23.0536 19.6565 23.3652 19.354 23.5943C19.0516 23.8233 18.6944 23.9611 18.3217 23.9924C17.949 24.0237 17.5752 23.9474 17.2414 23.7718L11.9993 21.0152L6.75728 23.7718C6.42352 23.9478 6.04967 24.0244 5.67683 23.9932C5.304 23.9621 4.94663 23.8243 4.64404 23.5952C4.34144 23.366 4.10534 23.0543 3.9617 22.6943C3.81806 22.3343 3.77245 21.94 3.82988 21.5547L4.72488 15.5061L0.589883 11.1611C0.326687 10.8843 0.141697 10.5374 0.0552114 10.1583C-0.0312744 9.77923 -0.0159143 9.38263 0.0996063 9.01204C0.215127 8.64145 0.426344 8.31119 0.710083 8.05749C0.993821 7.8038 1.33912 7.63647 1.70808 7.57387L7.50343 6.59211L10.19 1.15018C10.3612 0.803737 10.6205 0.513125 10.9397 0.31023C11.2588 0.107336 11.6255 0 11.9993 0C12.3731 0 12.7397 0.107336 13.0589 0.31023C13.378 0.513125 13.6374 0.803737 13.8085 1.15018L16.4951 6.59211L22.2906 7.57387C22.6599 7.63551 23.0057 7.80247 23.2896 8.05628ZM1.84999 9.25715L2.00183 9.21376L1.96473 9.22005C1.92483 9.22685 1.88624 9.23939 1.84999 9.25715Z" fill="#2F80ED"/>
<path fill-rule="evenodd" clip-rule="evenodd" d="M47.2896 8.05628C47.5735 8.31009 47.7845 8.64085 47.8993 9.01194C48.0157 9.38245 48.0315 9.77933 47.945 10.1586C47.8584 10.5379 47.6729 10.8849 47.4088 11.1611L43.2738 15.5061L44.1688 21.5547C44.2259 21.9399 44.1801 22.334 44.0363 22.6938C43.8926 23.0536 43.6565 23.3652 43.354 23.5943C43.0516 23.8233 42.6944 23.9611 42.3217 23.9924C41.949 24.0237 41.5752 23.9474 41.2414 23.7718L35.9993 21.0152L30.7573 23.7718C30.4235 23.9478 30.0497 24.0244 29.6768 23.9932C29.304 23.9621 28.9466 23.8243 28.644 23.5952C28.3414 23.366 28.1053 23.0543 27.9617 22.6943C27.8181 22.3343 27.7725 21.94 27.8299 21.5547L28.7249 15.5061L24.5899 11.1611C24.3267 10.8843 24.1417 10.5374 24.0552 10.1583C23.9687 9.77923 23.9841 9.38263 24.0996 9.01204C24.2151 8.64145 24.4263 8.31119 24.7101 8.05749C24.9938 7.8038 25.3391 7.63647 25.7081 7.57387L31.5034 6.59211L34.19 1.15018C34.3612 0.803737 34.6205 0.513125 34.9397 0.31023C35.2588 0.107336 35.6255 0 35.9993 0C36.3731 0 36.7397 0.107336 37.0589 0.31023C37.378 0.513125 37.6374 0.803737 37.8085 1.15018L40.4951 6.59211L46.2906 7.57387C46.6599 7.63551 47.0057 7.80247 47.2896 8.05628ZM25.85 9.25715L26.0018 9.21376L25.9647 9.22005C25.9248 9.22685 25.8862 9.23939 25.85 9.25715Z" fill="#2F80ED"/>
<path fill-rule="evenodd" clip-rule="evenodd" d="M71.2896 8.05628C71.5735 8.31009 71.7845 8.64085 71.8993 9.01194C72.0157 9.38245 72.0315 9.77933 71.945 10.1586C71.8584 10.5379 71.6729 10.8849 71.4088 11.1611L67.2738 15.5061L68.1688 21.5547C68.2259 21.9399 68.1801 22.334 68.0363 22.6938C67.8926 23.0536 67.6565 23.3652 67.354 23.5943C67.0516 23.8233 66.6944 23.9611 66.3217 23.9924C65.949 24.0237 65.5752 23.9474 65.2414 23.7718L59.9993 21.0152L54.7573 23.7718C54.4235 23.9478 54.0497 24.0244 53.6768 23.9932C53.304 23.9621 52.9466 23.8243 52.644 23.5952C52.3414 23.366 52.1053 23.0543 51.9617 22.6943C51.8181 22.3343 51.7725 21.94 51.8299 21.5547L52.7249 15.5061L48.5899 11.1611C48.3267 10.8843 48.1417 10.5374 48.0552 10.1583C47.9687 9.77923 47.9841 9.38263 48.0996 9.01204C48.2151 8.64145 48.4263 8.31119 48.7101 8.05749C48.9938 7.8038 49.3391 7.63647 49.7081 7.57387L55.5034 6.59211L58.19 1.15018C58.3612 0.803737 58.6205 0.513125 58.9397 0.31023C59.2588 0.107336 59.6255 0 59.9993 0C60.3731 0 60.7397 0.107336 61.0589 0.31023C61.378 0.513125 61.6374 0.803737 61.8085 1.15018L64.4951 6.59211L70.2906 7.57387C70.6599 7.63551 71.0057 7.80247 71.2896 8.05628ZM49.85 9.25715L50.0018 9.21376L49.9647 9.22005C49.9248 9.22685 49.8862 9.23939 49.85 9.25715Z" fill="#2F80ED"/>
<path fill-rule="evenodd" clip-rule="evenodd" d="M95.2896 8.05628C95.5735 8.31009 95.7845 8.64085 95.8993 9.01194C96.0157 9.38245 96.0315 9.77933 95.945 10.1586C95.8584 10.5379 95.6729 10.8849 95.4088 11.1611L91.2738 15.5061L92.1688 21.5547C92.2259 21.9399 92.1801 22.334 92.0363 22.6938C91.8926 23.0536 91.6565 23.3652 91.354 23.5943C91.0516 23.8233 90.6944 23.9611 90.3217 23.9924C89.949 24.0237 89.5752 23.9474 89.2414 23.7718L83.9993 21.0152L78.7573 23.7718C78.4235 23.9478 78.0497 24.0244 77.6768 23.9932C77.304 23.9621 76.9466 23.8243 76.644 23.5952C76.3414 23.366 76.1053 23.0543 75.9617 22.6943C75.8181 22.3343 75.7725 21.94 75.8299 21.5547L76.7249 15.5061L72.5899 11.1611C72.3267 10.8843 72.1417 10.5374 72.0552 10.1583C71.9687 9.77923 71.9841 9.38263 72.0996 9.01204C72.2151 8.64145 72.4263 8.31119 72.7101 8.05749C72.9938 7.8038 73.3391 7.63647 73.7081 7.57387L79.5034 6.59211L82.19 1.15018C82.3612 0.803737 82.6205 0.513125 82.9397 0.31023C83.2588 0.107336 83.6255 0 83.9993 0C84.3731 0 84.7397 0.107336 85.0589 0.31023C85.378 0.513125 85.6374 0.803737 85.8085 1.15018L88.4951 6.59211L94.2906 7.57387C94.6599 7.63551 95.0057 7.80247 95.2896 8.05628ZM73.85 9.25715L74.0018 9.21376L73.9647 9.22005C73.9248 9.22685 73.8862 9.23939 73.85 9.25715Z" fill="#2F80ED"/>
<path fill-rule="evenodd" clip-rule="evenodd" d="M119.29 8.05628C119.574 8.31009 119.785 8.64085 119.899 9.01194C120.016 9.38245 120.032 9.77933 119.945 10.1586C119.858 10.5379 119.673 10.8849 119.409 11.1611L115.274 15.5061L116.169 21.5547C116.226 21.9399 116.18 22.334 116.036 22.6938C115.893 23.0536 115.657 23.3652 115.354 23.5943C115.052 23.8233 114.694 23.9611 114.322 23.9924C113.949 24.0237 113.575 23.9474 113.241 23.7718L107.999 21.0152L102.757 23.7718C102.424 23.9478 102.05 24.0244 101.677 23.9932C101.304 23.9621 100.947 23.8243 100.644 23.5952C100.341 23.366 100.105 23.0543 99.9617 22.6943C99.8181 22.3343 99.7725 21.94 99.8299 21.5547L100.725 15.5061L96.5899 11.1611C96.3267 10.8843 96.1417 10.5374 96.0552 10.1583C95.9687 9.77923 95.9841 9.38263 96.0996 9.01204C96.2151 8.64145 96.4263 8.31119 96.7101 8.05749C96.9938 7.8038 97.3391 7.63647 97.7081 7.57387L103.503 6.59211L106.19 1.15018C106.361 0.803737 106.621 0.513125 106.94 0.31023C107.259 0.107336 107.625 0 107.999 0C108.373 0 108.74 0.107336 109.059 0.31023C109.378 0.513125 109.637 0.803737 109.809 1.15018L112.495 6.59211L118.291 7.57387C118.66 7.63551 119.006 7.80247 119.29 8.05628ZM97.85 9.25715L98.0018 9.21376L97.9647 9.22005C97.9248 9.22685 97.8862 9.23939 97.85 9.25715Z" fill="#2F80ED"/>
</svg>
