<svg width="185" height="38" viewBox="0 0 185 38" fill="none" xmlns="http://www.w3.org/2000/svg">
<g clip-path="url(#clip0_26_1373)">
<path d="M6.20683 0H0.315602C0.157801 0 0 0.157399 0 0.314798V37.356C0 37.5134 0.157801 37.6708 0.315602 37.6708H6.20683C6.36463 37.6708 6.52244 37.5134 6.52244 37.356V0.314798C6.52244 0.157399 6.41724 0 6.20683 0Z" fill="#2F80ED"/>
<path d="M12.6239 18.9403L24.8798 37.5134C24.9324 37.6184 25.0376 37.6708 25.1428 37.6708H31.4548C31.6126 37.6708 31.7704 37.5134 31.7704 37.356V0.314798C31.7704 0.157399 31.6126 0 31.4548 0H25.5636C25.4058 0 25.248 0.157399 25.248 0.314798V27.0726C25.248 27.3874 24.8272 27.4924 24.6694 27.23L13.1499 9.6538C12.9921 9.39147 12.5713 9.4964 12.5713 9.8112V18.7305C12.5713 18.8354 12.5713 18.8879 12.6239 18.9403Z" fill="#2F80ED"/>
</g>
<g clip-path="url(#clip1_26_1373)">
<path d="M55.783 0H33.7705V4.93183H55.783V0Z" fill="#2F80ED"/>
<path d="M54.1505 20.9865V16.2645H40.3532C40.3532 16.2645 40.3005 16.2645 40.3005 16.2121V10.913H33.7705V37.6708H40.3532V20.9865H54.1505Z" fill="#2F80ED"/>
<path d="M55.7828 32.6865H51.3065C48.5682 32.6865 46.3037 34.9426 46.3037 37.6708H55.7828V32.6865Z" fill="#2F80ED"/>
</g>
<g clip-path="url(#clip2_26_1373)">
<path d="M76.1243 6.76816C77.3296 7.92242 77.906 9.54887 77.906 11.7C77.906 14.6906 76.596 18.2583 70.4648 18.2583H70.2552V23.2426H71.3032C75.5479 23.2426 78.8493 22.1933 81.155 20.0946C83.4084 18.0484 84.5613 15.2152 84.5613 11.7C84.5613 8.13228 83.4608 5.24663 81.2599 3.14798C79.0589 1.04933 75.7051 0 71.3032 0H57.7832C57.7832 2.78072 60.0365 5.03677 62.8139 5.03677H70.4648C73.085 5.03677 74.9191 5.6139 76.1243 6.76816Z" fill="#2F80ED"/>
<path d="M64.2812 18.4156H57.7832V37.6708H64.2812V18.4156Z" fill="#2F80ED"/>
</g>
<g clip-path="url(#clip3_26_1373)">
<path d="M114.32 2.43721C111.504 0.794743 108.315 0 104.807 0C101.353 0 98.1106 0.794743 95.2938 2.43721C92.5302 4.0267 90.2449 6.30496 88.6505 9.16604C87.6407 10.9145 86.9498 12.8748 86.5778 14.9942C86.4715 15.577 86.8967 16.1068 87.5344 16.1068H92.2645C92.6897 16.1068 93.1148 15.7889 93.168 15.365C93.4337 14.1464 93.8057 13.0868 94.3372 12.0801C95.347 10.0667 96.7819 8.53024 98.5889 7.4176C100.396 6.35794 102.522 5.82812 104.86 5.82812C107.199 5.82812 109.325 6.35794 111.132 7.4176C112.939 8.47726 114.373 10.0667 115.383 12.0801C116.393 14.0405 116.925 16.4247 116.925 19.0209C116.925 21.67 116.393 24.0012 115.383 25.9616C114.373 27.975 112.939 29.5115 111.132 30.6241C110.387 31.048 109.59 31.4188 108.74 31.7367C108.368 31.8957 108.102 32.2136 108.102 32.6374V36.7171C108.102 37.3529 108.687 37.7768 109.271 37.6708C111.078 37.247 112.779 36.6112 114.373 35.7105C117.19 34.121 119.422 31.8427 121.07 28.9286C122.717 26.0146 123.515 22.6767 123.515 19.0738C123.515 15.418 122.664 12.1331 121.07 9.21902C119.422 6.30496 117.137 4.0267 114.32 2.43721Z" fill="#2F80ED"/>
<path fill-rule="evenodd" clip-rule="evenodd" d="M113.113 18.8355C113.113 23.3474 109.455 27.005 104.943 27.005C100.431 27.005 96.7734 23.3474 96.7734 18.8355C96.7734 14.3235 100.431 10.6659 104.943 10.6659C109.455 10.6659 113.113 14.3235 113.113 18.8355ZM108.801 17.9277C109.302 17.9277 109.709 18.3341 109.709 18.8355C109.709 19.3368 109.302 19.7432 108.801 19.7432H105.851V22.6933C105.851 23.1947 105.444 23.6011 104.943 23.6011C104.442 23.6011 104.035 23.1947 104.035 22.6933V19.7432H101.085C100.584 19.7432 100.177 19.3368 100.177 18.8355C100.177 18.3341 100.584 17.9277 101.085 17.9277H104.035V14.9776C104.035 14.4763 104.442 14.0699 104.943 14.0699C105.444 14.0699 105.851 14.4763 105.851 14.9776V17.9277H108.801Z" fill="#2F80ED"/>
</g>
<g clip-path="url(#clip4_26_1373)">
<path d="M134.782 35.2336C137.599 36.876 140.788 37.6708 144.295 37.6708C147.75 37.6708 150.992 36.876 153.809 35.2336C156.572 33.6441 158.858 31.3658 160.452 28.5047C161.462 26.7563 162.153 24.7959 162.525 22.6766C162.631 22.0938 162.206 21.564 161.568 21.564L156.838 21.564C156.413 21.564 155.988 21.8819 155.935 22.3057C155.669 23.5243 155.297 24.584 154.765 25.5907C153.756 27.604 152.321 29.1405 150.514 30.2532C148.707 31.3128 146.581 31.8427 144.242 31.8427C141.904 31.8427 139.778 31.3128 137.971 30.2532C136.164 29.1935 134.729 27.604 133.719 25.5907C132.71 23.6303 132.178 21.2461 132.178 18.6499C132.178 16.0008 132.71 13.6695 133.719 11.7092C134.729 9.69582 136.164 8.15931 137.971 7.04667C138.715 6.62281 139.512 6.25193 140.363 5.93403C140.735 5.77508 141 5.45719 141 5.03333L141 0.953642C141 0.317846 140.416 -0.106012 139.831 -4.77617e-05C138.024 0.423815 136.323 1.05961 134.729 1.96032C131.912 3.5498 129.68 5.82807 128.033 8.74213C126.385 11.6562 125.588 14.9941 125.588 18.5969C125.588 22.2528 126.438 25.5377 128.033 28.4518C129.68 31.3658 131.965 33.6441 134.782 35.2336Z" fill="#2F80ED"/>
</g>
<g clip-path="url(#clip5_26_1373)">
<path d="M164.541 26.9677H165.797C168.727 26.9677 171.081 24.6067 171.081 21.6686V0H164.541V26.9677Z" fill="#2F80ED"/>
<path d="M179.401 32.9489H164.541V37.6708H184.057C184.057 35.0475 181.964 32.9489 179.401 32.9489Z" fill="#2F80ED"/>
</g>
<defs>
<clipPath id="clip0_26_1373">
<rect width="31.7706" height="37.6708" fill="white"/>
</clipPath>
<clipPath id="clip1_26_1373">
<rect width="22.0125" height="37.6708" fill="white" transform="translate(33.7705)"/>
</clipPath>
<clipPath id="clip2_26_1373">
<rect width="26.7781" height="37.6708" fill="white" transform="translate(57.7832)"/>
</clipPath>
<clipPath id="clip3_26_1373">
<rect width="36.99" height="37.6708" fill="white" transform="translate(86.5615)"/>
</clipPath>
<clipPath id="clip4_26_1373">
<rect width="36.99" height="37.6708" fill="white" transform="translate(162.541 37.6708) rotate(-180)"/>
</clipPath>
<clipPath id="clip5_26_1373">
<rect width="19.5162" height="37.6708" fill="white" transform="translate(164.541)"/>
</clipPath>
</defs>
</svg>
