<svg width="26" height="26" viewBox="0 0 26 26" fill="none" xmlns="http://www.w3.org/2000/svg">
<path d="M25.4936 12.9567C25.4936 16.2935 25.4936 19.6311 25.4936 22.9695C25.4936 24.4565 24.46 25.4951 22.973 25.4958C16.3094 25.4958 9.64601 25.4958 2.98283 25.4958C1.47966 25.4958 0.424897 24.4597 0.423653 22.9608C0.418678 16.2856 0.418678 9.61183 0.423653 2.9395C0.423653 1.45187 1.47593 0.420117 2.95795 0.419495H22.9512C24.4793 0.419495 25.4961 1.44379 25.4961 2.97992C25.4965 6.3022 25.4957 9.62779 25.4936 12.9567ZM10.9657 13.0058C11.0702 13.0519 11.1106 13.152 11.1672 13.2322C12.3694 14.9207 13.574 16.6067 14.7656 18.3021C14.931 18.5378 15.1039 18.6454 15.4 18.641C16.5194 18.624 17.6388 18.624 18.7583 18.641C19.0618 18.6447 19.147 18.5396 19.1464 18.2461C19.1389 14.712 19.1389 11.1778 19.1464 7.64367C19.1464 7.3607 19.0568 7.26368 18.7732 7.26741C17.6643 7.27985 16.5555 7.28234 15.4466 7.26741C15.1356 7.26243 15.0355 7.35697 15.038 7.6729C15.0523 9.33093 15.0448 10.989 15.0448 12.6482C15.0448 12.7515 15.0448 12.8553 15.0448 12.9592C15.0448 13.0096 15.0511 13.0718 14.9957 13.096C14.9186 13.1296 14.8856 13.0593 14.8496 13.0133C14.7979 12.9511 14.755 12.8777 14.7084 12.8093C13.5102 11.0551 12.3132 9.30004 11.1175 7.54416C10.9862 7.35013 10.8419 7.26865 10.6081 7.27052C9.45757 7.27964 8.30703 7.27964 7.15649 7.27052C6.88347 7.27052 6.77401 7.33831 6.77463 7.63558C6.78417 11.1801 6.78417 14.725 6.77463 18.2703C6.77463 18.5533 6.85735 18.6485 7.14778 18.6435C8.27718 18.6298 9.40678 18.6298 10.5366 18.6435C10.8301 18.6472 10.9315 18.5651 10.929 18.2604C10.916 16.6229 10.9222 14.9854 10.9247 13.3473C10.9191 13.2328 10.8836 13.1159 10.9682 13.0027L10.9657 13.0058Z" fill="#00BF18"/>
</svg>
