<svg width="40" height="42" viewBox="0 0 40 42" fill="none" xmlns="http://www.w3.org/2000/svg">
<path d="M18.9664 32.1867C19.3863 32.1771 19.7893 32.0192 20.1041 31.741C20.4189 31.4629 20.6251 31.0823 20.6864 30.6667H17.1797C17.2427 31.0936 17.4586 31.4831 17.7872 31.7627C18.1159 32.0423 18.5349 32.193 18.9664 32.1867Z" fill="#B6B6B6"/>
<path d="M28.64 27.8867C27.9971 27.3136 27.4343 26.6566 26.9667 25.9334C26.4562 24.9351 26.1502 23.8449 26.0667 22.7267V19.4334C26.064 19.0334 26.0283 18.6342 25.96 18.2401C25.4353 18.1352 24.931 17.9461 24.4667 17.6801C24.6437 18.25 24.7336 18.8433 24.7333 19.4401V22.7334C24.815 24.0974 25.1903 25.4277 25.8333 26.6334C26.2936 27.3627 26.8397 28.0342 27.46 28.6334H10.3867C11.0069 28.0342 11.5531 27.3627 12.0133 26.6334C12.6564 25.4277 13.0316 24.0974 13.1133 22.7334V19.4334C13.1098 18.6618 13.2585 17.8972 13.551 17.1832C13.8434 16.4692 14.2738 15.8199 14.8175 15.2725C15.3612 14.7251 16.0075 14.2903 16.7195 13.993C17.4315 13.6957 18.1951 13.5418 18.9667 13.5401C20.0958 13.541 21.1997 13.8749 22.14 14.5001C22.0363 14.1194 21.9782 13.7278 21.9667 13.3334V12.9134C21.2706 12.571 20.5228 12.3457 19.7533 12.2467V11.4067C19.7533 11.1707 19.6596 10.9443 19.4927 10.7774C19.3258 10.6105 19.0994 10.5167 18.8633 10.5167C18.6273 10.5167 18.4009 10.6105 18.234 10.7774C18.0671 10.9443 17.9733 11.1707 17.9733 11.4067V12.2801C16.2505 12.5231 14.6737 13.3812 13.5341 14.696C12.3946 16.0108 11.7692 17.6935 11.7733 19.4334V22.7267C11.6898 23.8449 11.3839 24.9351 10.8733 25.9334C10.4139 26.655 9.86013 27.3119 9.22667 27.8867C9.15555 27.9492 9.09856 28.0261 9.05948 28.1123C9.0204 28.1985 9.00012 28.2921 9 28.3867V29.2934C9 29.4702 9.07024 29.6398 9.19526 29.7648C9.32029 29.8898 9.48986 29.9601 9.66667 29.9601H28.2C28.3768 29.9601 28.5464 29.8898 28.6714 29.7648C28.7964 29.6398 28.8667 29.4702 28.8667 29.2934V28.3867C28.8665 28.2921 28.8463 28.1985 28.8072 28.1123C28.7681 28.0261 28.7111 27.9492 28.64 27.8867Z" fill="#B6B6B6"/>
<path d="M26.9671 16.6667C28.8081 16.6667 30.3005 15.1743 30.3005 13.3333C30.3005 11.4924 28.8081 10 26.9671 10C25.1262 10 23.6338 11.4924 23.6338 13.3333C23.6338 15.1743 25.1262 16.6667 26.9671 16.6667Z" fill="#B6B6B6"/>
<rect x="0.25" y="0.25" width="39.3667" height="41.4635" rx="5.75" stroke="#B6B6B6" stroke-width="0.5"/>
</svg>
