<svg width="39" height="39" viewBox="0 0 39 39" fill="none" xmlns="http://www.w3.org/2000/svg">
<circle cx="19.5" cy="19.5" r="19.5" fill="#C4C4C4"/>
<path fill-rule="evenodd" clip-rule="evenodd" d="M8 10.3333C8 9.04467 9.04467 8 10.3333 8H29C30.2887 8 31.3333 9.04467 31.3333 10.3333V29C31.3333 30.2887 30.2887 31.3333 29 31.3333H10.3333C9.04467 31.3333 8 30.2887 8 29V10.3333ZM10.3333 10C10.1492 10 10 10.1492 10 10.3333V25.2525L13.0739 22.1785C14.5059 20.7466 16.8275 20.7466 18.2594 22.1785L18.4882 22.4073C19.139 23.0581 20.1943 23.0581 20.8452 22.4073L23.7406 19.5118C25.1725 18.0799 27.4941 18.0799 28.9261 19.5118L29.3333 19.9191V10.3333C29.3333 10.1492 29.1841 10 29 10H10.3333ZM29.3333 22.7475L27.5118 20.9261C26.861 20.2752 25.8057 20.2752 25.1548 20.9261L22.2594 23.8215C20.8275 25.2534 18.5059 25.2534 17.0739 23.8215L16.8452 23.5927C16.1943 22.9419 15.139 22.9419 14.4882 23.5927L10 28.0809V29C10 29.1841 10.1492 29.3333 10.3333 29.3333H29C29.1841 29.3333 29.3333 29.1841 29.3333 29V22.7475ZM15.46 14C14.6553 14 14 14.6546 14 15.4613C14 16.2681 14.6553 16.9227 15.46 16.9227C16.2664 16.9227 16.9213 16.2677 16.9213 15.4613C16.9213 14.655 16.2664 14 15.46 14ZM12 15.4613C12 13.5507 13.55 12 15.46 12C17.371 12 18.9213 13.5504 18.9213 15.4613C18.9213 17.3723 17.371 18.9227 15.46 18.9227C13.55 18.9227 12 17.3719 12 15.4613Z" fill="#F5F5F5"/>
</svg>
