<svg width="24" height="24" viewBox="0 0 24 24" fill="none" xmlns="http://www.w3.org/2000/svg">
<path fill-rule="evenodd" clip-rule="evenodd" d="M11.9997 0.0834961C5.41842 0.0834961 0.0830078 5.41891 0.0830078 12.0002C0.0830078 18.5814 5.41842 23.9168 11.9997 23.9168C18.5809 23.9168 23.9163 18.5814 23.9163 12.0002C23.9163 5.41891 18.5809 0.0834961 11.9997 0.0834961ZM17.165 9.98516C17.2601 9.87644 17.3325 9.7498 17.378 9.61268C17.4234 9.47556 17.441 9.33074 17.4296 9.18673C17.4183 9.04272 17.3782 8.90244 17.3119 8.77413C17.2455 8.64583 17.1542 8.53209 17.0432 8.43962C16.9322 8.34714 16.8039 8.27779 16.6657 8.23565C16.5275 8.1935 16.3823 8.17942 16.2386 8.19423C16.0949 8.20903 15.9557 8.25242 15.829 8.32185C15.7023 8.39128 15.5908 8.48534 15.501 8.5985L10.8427 14.1874L8.43226 11.7759C8.22794 11.5786 7.95429 11.4694 7.67024 11.4718C7.38619 11.4743 7.11448 11.5882 6.91362 11.7891C6.71276 11.99 6.59883 12.2617 6.59636 12.5457C6.59389 12.8298 6.70309 13.1034 6.90042 13.3077L10.1504 16.5577C10.2569 16.6641 10.3843 16.7472 10.5246 16.8016C10.6649 16.856 10.815 16.8805 10.9654 16.8737C11.1157 16.8669 11.263 16.8288 11.3978 16.7619C11.5326 16.695 11.652 16.6008 11.7483 16.4852L17.165 9.98516Z" fill="#2F80ED"/>
</svg>
