<svg width="24" height="24" viewBox="0 0 24 24" fill="none" xmlns="http://www.w3.org/2000/svg">
<path d="M23.7814 22.7191L16.5181 15.3847C17.8719 13.7575 18.6878 11.6639 18.6878 9.37796C18.6878 4.1987 14.5043 0 9.34389 0C4.18345 0 0 4.1987 0 9.37796C0 14.5572 4.18345 18.7559 9.34389 18.7559C11.6885 18.7559 13.8301 17.8871 15.4709 16.4549L22.724 23.7803C23.0159 24.0732 23.4895 24.0732 23.7814 23.7803C24.0729 23.4873 24.0729 23.0124 23.7814 22.7191H23.7814ZM9.34389 17.2678C5.00235 17.2678 1.48269 13.7353 1.48269 9.37796C1.48269 5.02058 5.00235 1.48809 9.34389 1.48809C13.6854 1.48809 17.2051 5.02058 17.2051 9.37796C17.2051 13.7353 13.6854 17.2678 9.34389 17.2678Z" fill="#2F80ED"/>
</svg>
