<svg width="36" height="37" viewBox="0 0 36 37" fill="none" xmlns="http://www.w3.org/2000/svg">
<path d="M17.1239 19.3044C16.5395 19.1583 16.0646 19.0731 15.6019 18.9148C10.9261 17.3319 6.76178 14.787 2.80444 11.889C2.34173 11.5481 1.90338 11.1219 1.61115 10.647C1.45286 10.3913 1.47721 9.87988 1.6355 9.58765C1.75727 9.36847 2.23215 9.21018 2.50003 9.25889C3.01144 9.34412 3.53503 9.52677 3.99773 9.78247C7.05401 11.4628 10.0981 13.1553 13.1301 14.8722C14.2625 15.5176 15.3827 16.1995 16.5029 16.8692C16.8804 17.0883 17.2457 17.3319 17.5866 17.5876C17.9763 17.8676 18.2076 18.2938 17.9519 18.72C17.7814 19 17.6597 19.3044 17.1239 19.3044Z" fill="#2F80ED"/>
<path d="M35.2552 2.06272C35.1578 2.64718 35.0848 3.32907 34.9386 3.98659C34.3542 6.58017 33.7697 9.17375 33.1609 11.7552C33.027 12.3153 32.7956 12.8632 32.5277 13.3624C32.1746 14.0321 31.6754 14.2635 31.1274 14.1539C30.5795 14.0443 30.2386 13.606 30.2264 12.8389C30.2142 12.3153 30.2264 11.7551 30.3481 11.2559C31.1761 7.98046 32.0285 4.705 32.893 1.44172C32.9904 1.07643 33.1609 0.698959 33.4044 0.418901C34.0011 -0.287331 34.9386 -0.0681556 35.17 0.8329C35.2552 1.18602 35.2187 1.58784 35.2552 2.06272Z" fill="#2F80ED"/>
<path d="M2.60778 36.2785C2.03548 36.2298 1.46319 36.108 0.903078 35.9619C0.403844 35.828 0.050728 35.487 0.00202222 34.9391C-0.0345071 34.4764 0.428198 33.9772 1.03702 33.9041C1.85284 33.8067 2.68084 33.7214 3.49666 33.758C5.9563 33.8676 8.42811 34.0259 10.8877 34.1963C11.7036 34.2572 12.5194 34.3668 13.3352 34.5007C13.6153 34.5494 13.9075 34.6469 14.1267 34.8052C14.7477 35.2313 14.699 36.0106 14.0293 36.315C13.6518 36.4855 13.1891 36.5586 12.7751 36.5586C11.4113 36.6194 4.62906 36.4368 2.60778 36.2785Z" fill="#2F80ED"/>
</svg>
