<svg width="30" height="30" viewBox="0 0 30 30" fill="none" xmlns="http://www.w3.org/2000/svg">
<path d="M22.6582 28.3333C22.2899 28.333 21.9301 28.2227 21.6249 28.0167L15.4082 23.85C15.3776 23.8289 15.3413 23.8175 15.304 23.8175C15.2668 23.8175 15.2305 23.8289 15.1999 23.85L8.98322 28.0167C8.67104 28.2251 8.30285 28.3337 7.92753 28.3279C7.55221 28.3221 7.18751 28.2023 6.88188 27.9844C6.57625 27.7665 6.34414 27.4608 6.21637 27.1078C6.08861 26.7549 6.07123 26.3714 6.16655 26.0083L8.20822 18.8083C8.21787 18.7721 8.2167 18.7339 8.20485 18.6983C8.193 18.6628 8.17099 18.6315 8.14155 18.6083L2.25822 13.9833C1.9485 13.7526 1.71876 13.4307 1.6012 13.0628C1.48365 12.6949 1.48418 12.2995 1.60273 11.9319C1.72127 11.5644 1.95187 11.2431 2.26221 11.0132C2.57255 10.7833 2.94706 10.6563 3.33322 10.65L10.8332 10.3667C10.8701 10.3641 10.9054 10.351 10.935 10.3288C10.9646 10.3066 10.9871 10.2764 10.9999 10.2417L13.5832 3.21666C13.7134 2.86053 13.9499 2.55301 14.2607 2.33574C14.5715 2.11848 14.9415 2.00195 15.3207 2.00195C15.6999 2.00195 16.0699 2.11848 16.3807 2.33574C16.6915 2.55301 16.928 2.86053 17.0582 3.21666L19.6415 10.2417C19.6543 10.2764 19.6768 10.3066 19.7064 10.3288C19.736 10.351 19.7713 10.3641 19.8082 10.3667L27.3082 10.65C27.6944 10.6563 28.0689 10.7833 28.3792 11.0132C28.6896 11.2431 28.9202 11.5644 29.0387 11.9319C29.1572 12.2995 29.1578 12.6949 29.0402 13.0628C28.9227 13.4307 28.6929 13.7526 28.3832 13.9833L22.4999 18.6083C22.4695 18.6308 22.4469 18.662 22.4349 18.6978C22.423 18.7336 22.4224 18.7722 22.4332 18.8083L24.4749 26.0083C24.5465 26.2845 24.5537 26.5735 24.4957 26.8528C24.4377 27.1322 24.3161 27.3944 24.1405 27.6193C23.9648 27.8441 23.7397 28.0254 23.4827 28.1493C23.2256 28.2731 22.9435 28.3361 22.6582 28.3333V28.3333ZM15.3082 22.15C15.6772 22.1613 16.0344 22.2832 16.3332 22.5L22.5499 26.6667C22.5814 26.6906 22.6198 26.7037 22.6594 26.704C22.6989 26.7043 22.7375 26.6918 22.7694 26.6684C22.8013 26.645 22.8247 26.6118 22.8362 26.574C22.8477 26.5361 22.8467 26.4955 22.8332 26.4583L20.7916 19.2583C20.6911 18.9051 20.6985 18.53 20.8128 18.181C20.9272 17.8321 21.1432 17.5253 21.4332 17.3L27.3165 12.675C27.3486 12.6525 27.3727 12.6202 27.3851 12.583C27.3975 12.5458 27.3977 12.5056 27.3855 12.4683C27.3734 12.431 27.3496 12.3986 27.3177 12.3758C27.2858 12.353 27.2474 12.341 27.2082 12.3417L19.7082 12.0583C19.341 12.044 18.9863 11.9206 18.6895 11.704C18.3927 11.4873 18.1671 11.1871 18.0415 10.8417L15.4582 3.81666C15.4466 3.77936 15.4233 3.74676 15.3918 3.72361C15.3603 3.70046 15.3223 3.68797 15.2832 3.68797C15.2441 3.68797 15.2061 3.70046 15.1746 3.72361C15.1431 3.74676 15.1199 3.77936 15.1082 3.81666L12.5499 10.8333C12.4243 11.1787 12.1988 11.4789 11.9019 11.6956C11.6051 11.9123 11.2505 12.0357 10.8832 12.05L3.38322 12.3333C3.344 12.3327 3.30562 12.3447 3.2737 12.3675C3.24179 12.3902 3.21802 12.4227 3.2059 12.46C3.19378 12.4973 3.19394 12.5375 3.20636 12.5747C3.21877 12.6119 3.24279 12.6441 3.27488 12.6667L9.16655 17.3C9.45567 17.526 9.67105 17.8328 9.78531 18.1815C9.89957 18.5303 9.90754 18.9051 9.80822 19.2583L7.77488 26.4583C7.76275 26.4944 7.76269 26.5334 7.77472 26.5695C7.78675 26.6056 7.81021 26.6368 7.84155 26.6583C7.87174 26.6842 7.91016 26.6983 7.94988 26.6983C7.98961 26.6983 8.02803 26.6842 8.05822 26.6583L14.2749 22.4917C14.5787 22.2901 14.9353 22.1829 15.2999 22.1833L15.3082 22.15Z" fill="black"/>
</svg>
