<svg width="52" height="52" viewBox="0 0 52 52" fill="none" xmlns="http://www.w3.org/2000/svg">
<path fill-rule="evenodd" clip-rule="evenodd" d="M48.75 7.2363C48.75 6.39419 48.4076 5.58658 47.7981 4.99112C47.1886 4.39567 46.362 4.06114 45.5 4.06114H6.5C5.63805 4.06114 4.8114 4.39567 4.2019 4.99112C3.59241 5.58658 3.25 6.39419 3.25 7.2363V45.3382C3.25 46.1803 3.59241 46.9879 4.2019 47.5833C4.8114 48.1788 5.63805 48.5133 6.5 48.5133H45.5C46.362 48.5133 47.1886 48.1788 47.7981 47.5833C48.4076 46.9879 48.75 46.1803 48.75 45.3382V7.2363ZM0 7.2363C0 5.55209 0.68482 3.93686 1.90381 2.74595C3.12279 1.55504 4.77609 0.885986 6.5 0.885986L45.5 0.885986C47.2239 0.885986 48.8772 1.55504 50.0962 2.74595C51.3152 3.93686 52 5.55209 52 7.2363V45.3382C52 47.0224 51.3152 48.6376 50.0962 49.8285C48.8772 51.0194 47.2239 51.6885 45.5 51.6885H6.5C4.77609 51.6885 3.12279 51.0194 1.90381 49.8285C0.68482 48.6376 0 47.0224 0 45.3382V7.2363ZM27.625 37.4003C27.625 37.8213 27.4538 38.2251 27.149 38.5229C26.8443 38.8206 26.431 38.9879 26 38.9879C25.569 38.9879 25.1557 38.8206 24.851 38.5229C24.5462 38.2251 24.375 37.8213 24.375 37.4003V19.0066L17.4005 25.8237C17.0954 26.1218 16.6815 26.2892 16.25 26.2892C15.8185 26.2892 15.4046 26.1218 15.0995 25.8237C14.7944 25.5256 14.6229 25.1212 14.6229 24.6997C14.6229 24.2781 14.7944 23.8738 15.0995 23.5756L24.8495 14.0502C25.0004 13.9023 25.1798 13.785 25.3772 13.705C25.5746 13.625 25.7863 13.5838 26 13.5838C26.2137 13.5838 26.4254 13.625 26.6228 13.705C26.8202 13.785 26.9996 13.9023 27.1505 14.0502L36.9005 23.5756C37.2056 23.8738 37.3771 24.2781 37.3771 24.6997C37.3771 25.1212 37.2056 25.5256 36.9005 25.8237C36.5954 26.1218 36.1815 26.2892 35.75 26.2892C35.3185 26.2892 34.9046 26.1218 34.5995 25.8237L27.625 19.0066V37.4003Z" fill="#B6B6B6"/>
</svg>
