<svg width="51" height="51" viewBox="0 0 51 51" fill="none" xmlns="http://www.w3.org/2000/svg">
<path d="M6.375 51C4.68424 51 3.06274 50.3284 1.86719 49.1328C0.67165 47.9373 0 46.3158 0 44.625V6.375C0 4.68424 0.67165 3.06274 1.86719 1.86719C3.06274 0.67165 4.68424 0 6.375 0L44.625 0C46.3158 0 47.9373 0.67165 49.1328 1.86719C50.3284 3.06274 51 4.68424 51 6.375V44.625C51 46.3158 50.3284 47.9373 49.1328 49.1328C47.9373 50.3284 46.3158 51 44.625 51H6.375ZM27.0938 36.6562V18.1911L33.9341 25.0346C34.0823 25.1828 34.2582 25.3003 34.4518 25.3805C34.6454 25.4607 34.8529 25.502 35.0625 25.502C35.2721 25.502 35.4796 25.4607 35.6732 25.3805C35.8668 25.3003 36.0427 25.1828 36.1909 25.0346C36.3391 24.8864 36.4566 24.7105 36.5368 24.5169C36.617 24.3233 36.6583 24.1158 36.6583 23.9062C36.6583 23.6967 36.617 23.4892 36.5368 23.2956C36.4566 23.102 36.3391 22.9261 36.1909 22.7779L26.6284 13.2154C26.4803 13.067 26.3045 12.9492 26.1108 12.8689C25.9172 12.7885 25.7096 12.7472 25.5 12.7472C25.2904 12.7472 25.0828 12.7885 24.8892 12.8689C24.6955 12.9492 24.5197 13.067 24.3716 13.2154L14.8091 22.7779C14.5099 23.0771 14.3417 23.483 14.3417 23.9062C14.3417 24.3295 14.5099 24.7354 14.8091 25.0346C15.1084 25.3339 15.5143 25.502 15.9375 25.502C16.3607 25.502 16.7666 25.3339 17.0659 25.0346L23.9062 18.1911V36.6562C23.9062 37.0789 24.0742 37.4843 24.373 37.7832C24.6719 38.0821 25.0773 38.25 25.5 38.25C25.9227 38.25 26.3281 38.0821 26.627 37.7832C26.9258 37.4843 27.0938 37.0789 27.0938 36.6562Z" fill="#2F80ED"/>
</svg>
