<svg width="24" height="24" viewBox="0 0 24 24" fill="none" xmlns="http://www.w3.org/2000/svg">
<path d="M0 4.95C0 3.63718 0.521517 2.37813 1.44982 1.44982C2.37813 0.521517 3.63718 0 4.95 0H18.15C19.4628 0 20.7219 0.521517 21.6502 1.44982C22.5785 2.37813 23.1 3.63718 23.1 4.95V18.15C23.1 19.4628 22.5785 20.7219 21.6502 21.6502C20.7219 22.5785 19.4628 23.1 18.15 23.1H4.95C3.63718 23.1 2.37813 22.5785 1.44982 21.6502C0.521517 20.7219 0 19.4628 0 18.15V4.95ZM4.95 1.65C4.07479 1.65 3.23542 1.99768 2.61655 2.61655C1.99768 3.23542 1.65 4.07479 1.65 4.95V6.6957L10.725 6.60825V1.65H4.95ZM12.375 1.65V14.85H21.45V4.95C21.45 4.07479 21.1023 3.23542 20.4835 2.61655C19.8646 1.99768 19.0252 1.65 18.15 1.65H12.375ZM21.45 16.5H12.375V21.45H18.15C19.0252 21.45 19.8646 21.1023 20.4835 20.4835C21.1023 19.8646 21.45 19.0252 21.45 18.15V16.5ZM10.725 21.45V8.25825L1.65 8.3457V18.15C1.65 19.0252 1.99768 19.8646 2.61655 20.4835C3.23542 21.1023 4.07479 21.45 4.95 21.45H10.725Z" fill="#F5F5F5"/>
</svg>
