<svg width="25" height="25" viewBox="0 0 25 25" fill="none" xmlns="http://www.w3.org/2000/svg">
<path d="M0.949219 5.90001C0.949219 4.58719 1.47074 3.32814 2.39904 2.39983C3.32735 1.47153 4.5864 0.950012 5.89922 0.950012H19.0992C20.412 0.950012 21.6711 1.47153 22.5994 2.39983C23.5277 3.32814 24.0492 4.58719 24.0492 5.90001V19.1C24.0492 20.4128 23.5277 21.6719 22.5994 22.6002C21.6711 23.5285 20.412 24.05 19.0992 24.05H5.89922C4.5864 24.05 3.32735 23.5285 2.39904 22.6002C1.47074 21.6719 0.949219 20.4128 0.949219 19.1V5.90001ZM5.89922 2.60001C5.024 2.60001 4.18464 2.94769 3.56577 3.56656C2.9469 4.18543 2.59922 5.0248 2.59922 5.90001V7.64571L11.6742 7.55826V2.60001H5.89922ZM13.3242 2.60001V15.8H22.3992V5.90001C22.3992 5.0248 22.0515 4.18543 21.4327 3.56656C20.8138 2.94769 19.9744 2.60001 19.0992 2.60001H13.3242ZM22.3992 17.45H13.3242V22.4H19.0992C19.9744 22.4 20.8138 22.0523 21.4327 21.4335C22.0515 20.8146 22.3992 19.9752 22.3992 19.1V17.45ZM11.6742 22.4V9.20826L2.59922 9.29571V19.1C2.59922 19.9752 2.9469 20.8146 3.56577 21.4335C4.18464 22.0523 5.024 22.4 5.89922 22.4H11.6742Z" fill="#767676"/>
</svg>
